<?xml version="1.0" encoding="UTF-8" standalone="no"?>
<svg
   xmlns:dc="http://purl.org/dc/elements/1.1/"
   xmlns:cc="http://creativecommons.org/ns#"
   xmlns:rdf="http://www.w3.org/1999/02/22-rdf-syntax-ns#"
   xmlns:svg="http://www.w3.org/2000/svg"
   xmlns="http://www.w3.org/2000/svg"
   xmlns:sodipodi="http://sodipodi.sourceforge.net/DTD/sodipodi-0.dtd"
   xmlns:inkscape="http://www.inkscape.org/namespaces/inkscape"
   width="22"
   height="22"
   version="1.1"
   id="svg10"
   sodipodi:docname="start.svg"
   inkscape:version="0.92.1 r">
  <metadata
     id="metadata16">
    <rdf:RDF>
      <cc:Work
         rdf:about="">
        <dc:format>image/svg+xml</dc:format>
        <dc:type
           rdf:resource="http://purl.org/dc/dcmitype/StillImage" />
      </cc:Work>
    </rdf:RDF>
  </metadata>
  <defs
     id="defs14" />
  <sodipodi:namedview
     pagecolor="#ffffff"
     bordercolor="#666666"
     borderopacity="1"
     objecttolerance="10"
     gridtolerance="10"
     guidetolerance="10"
     inkscape:pageopacity="0"
     inkscape:pageshadow="2"
     inkscape:window-width="1680"
     inkscape:window-height="970"
     id="namedview12"
     showgrid="false"
     inkscape:zoom="6.5909091"
     inkscape:cx="13.340941"
     inkscape:cy="14.859266"
     inkscape:current-layer="svg10"
     inkscape:window-x="0"
     inkscape:window-y="0"
     inkscape:window-maximized="1" />
  <g
     id="start-here-kde">
    <rect
       id="rect860"
       style="opacity:0.00100002;vector-effect:none;fill:#000000;fill-opacity:1;stroke:none;stroke-width:3.22818279;stroke-linecap:round;stroke-linejoin:round;stroke-miterlimit:4;stroke-dasharray:none;stroke-dashoffset:0;stroke-opacity:1"
       width="26.537931"
       height="26.537931"
       x="-2.2689655"
       y="-2.2689655" />
    <path
       inkscape:connector-curvature="0"
       id="path4495"
       d="m 14.228976,2.2477565 -2.202111,2.2021136 3.336609,3.3242033 -3.315997,3.3284086 2.202111,2.202113 5.518113,-5.5387235 -2.202111,-2.2021151 -0.0041,0.00401 z m -7.577625,0.09675 A 1.0944396,1.0944396 0 0 0 5.556817,3.4389379 1.0944396,1.0944396 0 0 0 6.651351,4.5333686 1.0944396,1.0944396 0 0 0 7.745781,3.4389379 1.0944396,1.0944396 0 0 0 6.651351,2.3445065 Z M 3.925525,8.8078268 A 1.6932838,1.6932838 0 0 0 2.232299,10.501162 1.6932838,1.6932838 0 0 0 3.925525,12.19439 1.6932838,1.6932838 0 0 0 5.618864,10.501162 1.6932838,1.6932838 0 0 0 3.925525,8.8078268 Z m 4.914691,6.5253652 a 2.2095289,2.2095289 0 0 0 -2.20958,2.209473 2.2095289,2.2095289 0 0 0 2.20958,2.209578 2.2095289,2.2095289 0 0 0 2.209472,-2.209578 2.2095289,2.2095289 0 0 0 -2.209472,-2.209473 z"
       style="opacity:1;fill:#808080;fill-opacity:1;fill-rule:nonzero;stroke:none;stroke-width:0.60000002;stroke-linecap:round;stroke-linejoin:miter;stroke-miterlimit:4;stroke-dasharray:none;stroke-dashoffset:0;stroke-opacity:1" />
  </g>
  <g
     transform="translate(-18.889655,-40.586207)"
     id="start-here-kde-3">
    <rect
       id="rect860-6"
       style="opacity:0.00100002;vector-effect:none;fill:#000000;fill-opacity:1;stroke:none;stroke-width:3.22818279;stroke-linecap:round;stroke-linejoin:round;stroke-miterlimit:4;stroke-dasharray:none;stroke-dashoffset:0;stroke-opacity:1"
       width="26.537931"
       height="26.537931"
       x="-2.2689655"
       y="-2.2689655" />
    <path
       inkscape:connector-curvature="0"
       id="path4495-7"
       d="m 14.228976,2.2477565 -2.202111,2.2021136 3.336609,3.3242033 -3.315997,3.3284086 2.202111,2.202113 5.518113,-5.5387235 -2.202111,-2.2021151 -0.0041,0.00401 z m -7.577625,0.09675 A 1.0944396,1.0944396 0 0 0 5.556817,3.4389379 1.0944396,1.0944396 0 0 0 6.651351,4.5333686 1.0944396,1.0944396 0 0 0 7.745781,3.4389379 1.0944396,1.0944396 0 0 0 6.651351,2.3445065 Z M 3.925525,8.8078268 A 1.6932838,1.6932838 0 0 0 2.232299,10.501162 1.6932838,1.6932838 0 0 0 3.925525,12.19439 1.6932838,1.6932838 0 0 0 5.618864,10.501162 1.6932838,1.6932838 0 0 0 3.925525,8.8078268 Z m 4.914691,6.5253652 a 2.2095289,2.2095289 0 0 0 -2.20958,2.209473 2.2095289,2.2095289 0 0 0 2.20958,2.209578 2.2095289,2.2095289 0 0 0 2.209472,-2.209578 2.2095289,2.2095289 0 0 0 -2.209472,-2.209473 z"
       style="opacity:1;fill:#d3dae3;fill-opacity:1;fill-rule:nonzero;stroke:none;stroke-width:0.60000002;stroke-linecap:round;stroke-linejoin:miter;stroke-miterlimit:4;stroke-dasharray:none;stroke-dashoffset:0;stroke-opacity:1" />
  </g>
</svg>
