<?xml version="1.0" encoding="UTF-8" standalone="no"?>
<svg
   xmlns:osb="http://www.openswatchbook.org/uri/2009/osb"
   xmlns:dc="http://purl.org/dc/elements/1.1/"
   xmlns:cc="http://creativecommons.org/ns#"
   xmlns:rdf="http://www.w3.org/1999/02/22-rdf-syntax-ns#"
   xmlns:svg="http://www.w3.org/2000/svg"
   xmlns="http://www.w3.org/2000/svg"
   xmlns:sodipodi="http://sodipodi.sourceforge.net/DTD/sodipodi-0.dtd"
   xmlns:inkscape="http://www.inkscape.org/namespaces/inkscape"
   id="svg7384"
   style="enable-background:new"
   width="22"
   height="22"
   version="1.1"
   sodipodi:docname="skypeforlinux.svg"
   inkscape:version="0.92.1 r">
  <metadata
     id="metadata11">
    <rdf:RDF>
      <cc:Work
         rdf:about="">
        <dc:format>image/svg+xml</dc:format>
        <dc:type
           rdf:resource="http://purl.org/dc/dcmitype/StillImage" />
        <dc:title />
      </cc:Work>
    </rdf:RDF>
  </metadata>
  <sodipodi:namedview
     pagecolor="#ffffff"
     bordercolor="#666666"
     borderopacity="1"
     objecttolerance="10"
     gridtolerance="10"
     guidetolerance="10"
     inkscape:pageopacity="0"
     inkscape:pageshadow="2"
     inkscape:window-width="640"
     inkscape:window-height="480"
     id="namedview9"
     showgrid="false"
     inkscape:zoom="13.181818"
     inkscape:cx="9.5761567"
     inkscape:cy="7.1602708"
     inkscape:current-layer="svg7384" />
  <defs
     id="defs7386">
    <linearGradient
       id="linearGradient5606"
       osb:paint="solid">
      <stop
         id="stop5608"
         style="stop-color:#000000;stop-opacity:1;"
         offset="0" />
    </linearGradient>
  </defs>
  <g
     id="skypeforlinux">
    <path
       id="rect4148"
       style="opacity:0;fill:#000000;fill-opacity:1;fill-rule:nonzero;stroke:none;stroke-width:1;stroke-linecap:round;stroke-linejoin:round;stroke-miterlimit:4;stroke-dasharray:none;stroke-dashoffset:0;stroke-opacity:1"
       d="m 0,0 h 22 c 0,0 0,0 0,0 v 22 c 0,0 0,0 0,0 H 0 c 0,0 0,0 0,0 V 0 c 0,0 0,0 0,0 z"
       inkscape:connector-curvature="0" />
    <path
       inkscape:connector-curvature="0"
       id="path4522"
       d="m 14.003959,19.105678 c -0.26058,-0.04543 -0.656923,-0.163903 -0.880761,-0.263268 -0.376786,-0.167263 -0.461887,-0.172912 -1.147121,-0.07615 -2.4024523,0.339258 -5.0947713,-0.665626 -6.7769203,-2.529427 -1.443067,-1.598903 -2.140966,-3.634901 -2.006254,-5.8529 0.05338,-0.8788978 0.04044,-0.9986588 -0.176787,-1.6364038 -0.444122,-1.303857 -0.279788,-2.726706 0.444528,-3.848851 0.646954,-1.002292 1.734761,-1.76502 2.846933,-1.996158 0.683498,-0.142049 1.793399,-0.06062 2.423337,0.177795 0.470127,0.177929 0.554483,0.183995 1.172452,0.08431 0.4076763,-0.06577 1.0138303,-0.08685 1.5632133,-0.05437 3.456336,0.204347 6.301207,2.540888 7.205511,5.918007 0.182034,0.679808 0.212125,1.3598538 0.151992,3.4349678 -0.0056,0.193767 0.07998,0.59011 0.190214,0.880761 0.426084,1.123449 0.20426,2.712154 -0.532798,3.815907 -0.97234,1.456091 -2.780172,2.24171 -4.477539,1.945776 z M 12.596846,15.325033 C 13.912834,14.909314 14.591565,13.92521 14.502518,12.561964 14.412368,11.181891 13.796924,10.636639 11.60442,9.9944106 9.9047087,9.4965312 9.7289207,9.3761732 9.7825957,8.7470402 c 0.07205,-0.844531 1.4000133,-0.957422 2.8168393,-0.239462 0.546468,0.276916 0.953978,0.274765 1.288602,-0.0068 0.312884,-0.263274 0.39505,-0.606077 0.236324,-0.985961 -0.362346,-0.867221 -2.725406,-1.509553 -4.1825383,-1.13691 -1.543273,0.394673 -2.384014,1.62905 -2.131374,3.129286 0.169834,1.0085108 0.80718,1.6168058 2.104269,2.0083478 0.3297793,0.09955 0.9526903,0.287385 1.3842443,0.417415 1.117629,0.336748 1.458219,0.714625 1.184864,1.314573 -0.150387,0.330063 -0.62426,0.514695 -1.304577,0.508293 -0.703949,-0.0066 -1.2882483,-0.192317 -1.9406673,-0.616756 -0.666374,-0.433518 -1.14051,-0.444818 -1.505886,-0.03589 -0.42459,0.475199 -0.316088,1.074614 0.264009,1.458504 0.969553,0.64162 1.947339,0.92823 3.1909243,0.93533 0.616882,0.0035 1.002725,-0.04356 1.409217,-0.171977 z"
       style="fill:#d3dae3;fill-opacity:1;stroke-width:1" />
  </g>
</svg>
